<svg id="svg" version="1.1" xmlns="http://www.w3.org/2000/svg" xmlns:xlink="http://www.w3.org/1999/xlink" width="400" height="60.65711878685763" viewBox="0, 0, 400,60.65711878685763"><g id="svgg"><path id="path0" d="M4.458 0.123 C 3.840 0.155,3.333 0.253,3.333 0.341 C 3.333 0.428,3.146 0.500,2.917 0.500 C 2.688 0.500,2.500 0.575,2.500 0.667 C 2.500 0.758,2.399 0.833,2.277 0.833 C 1.961 0.833,0.500 2.248,0.500 2.553 C 0.500 2.692,0.406 2.837,0.292 2.875 C 0.126 2.930,0.083 7.656,0.083 25.764 L 0.083 48.583 1.167 49.673 C 2.360 50.872,2.996 51.333,3.461 51.333 C 3.629 51.333,3.838 51.403,3.925 51.489 C 4.238 51.795,7.502 51.859,24.250 51.888 L 41.250 51.917 41.301 51.125 C 41.331 50.649,41.282 50.333,41.176 50.333 C 41.079 50.333,41.000 50.108,41.000 49.833 C 41.000 49.558,40.925 49.333,40.833 49.333 C 40.742 49.333,40.667 49.161,40.667 48.950 C 40.667 48.440,40.367 48.167,39.810 48.167 C 39.559 48.167,39.307 48.092,39.250 48.000 C 39.183 47.892,35.779 47.833,29.583 47.833 C 23.387 47.833,19.983 47.775,19.917 47.667 C 19.851 47.560,17.252 47.500,12.667 47.500 C 8.082 47.500,5.483 47.440,5.417 47.333 C 5.360 47.242,5.165 47.167,4.983 47.167 C 4.590 47.167,3.833 46.458,3.833 46.091 C 3.833 45.949,3.758 45.833,3.667 45.833 C 3.575 45.833,3.500 45.688,3.500 45.510 C 3.500 45.332,3.425 45.140,3.333 45.083 C 3.224 45.016,3.167 40.363,3.167 31.667 C 3.167 22.971,3.224 18.317,3.333 18.250 C 3.425 18.193,3.500 17.979,3.500 17.773 C 3.500 17.568,3.590 17.310,3.700 17.200 C 3.961 16.939,54.756 16.906,54.917 17.167 C 54.973 17.258,55.578 17.333,56.260 17.333 L 57.500 17.333 57.500 19.833 C 57.500 22.222,57.515 22.333,57.833 22.333 C 58.017 22.333,58.167 22.408,58.167 22.500 C 58.167 22.592,58.317 22.667,58.500 22.667 C 58.683 22.667,58.833 22.742,58.833 22.833 C 58.833 22.925,59.058 23.000,59.333 23.000 C 59.608 23.000,59.833 23.075,59.833 23.167 C 59.833 23.258,60.208 23.333,60.667 23.333 L 61.500 23.333 61.500 22.760 C 61.500 22.444,61.575 22.140,61.667 22.083 C 61.895 21.942,61.895 10.000,61.667 10.000 C 61.565 10.000,61.500 9.253,61.500 8.093 C 61.500 7.002,61.429 6.142,61.333 6.083 C 61.242 6.027,61.167 5.647,61.167 5.240 C 61.167 4.833,61.092 4.500,61.000 4.500 C 60.908 4.500,60.833 4.275,60.833 4.000 C 60.833 3.725,60.758 3.500,60.667 3.500 C 60.575 3.500,60.500 3.350,60.500 3.167 C 60.500 2.983,60.425 2.833,60.333 2.833 C 60.242 2.833,60.167 2.719,60.167 2.579 C 60.167 2.248,58.752 0.833,58.421 0.833 C 58.281 0.833,58.167 0.758,58.167 0.667 C 58.167 0.575,58.023 0.500,57.847 0.500 C 57.672 0.500,57.497 0.406,57.458 0.292 C 57.393 0.097,7.942 -0.061,4.458 0.123 M347.667 4.000 C 347.667 4.102,346.864 4.167,345.593 4.167 C 344.391 4.167,343.476 4.237,343.417 4.333 C 343.360 4.425,342.985 4.500,342.583 4.500 C 342.182 4.500,341.807 4.575,341.750 4.667 C 341.693 4.758,341.393 4.833,341.083 4.833 C 340.773 4.833,340.473 4.908,340.417 5.000 C 340.360 5.092,340.135 5.167,339.917 5.167 C 339.698 5.167,339.473 5.242,339.417 5.333 C 339.360 5.425,339.131 5.500,338.907 5.500 C 338.683 5.500,338.500 5.575,338.500 5.667 C 338.500 5.758,338.350 5.833,338.167 5.833 C 337.983 5.833,337.833 5.908,337.833 6.000 C 337.833 6.092,337.683 6.167,337.500 6.167 C 337.317 6.167,337.167 6.242,337.167 6.333 C 337.167 6.425,337.017 6.500,336.833 6.500 C 336.650 6.500,336.500 6.575,336.500 6.667 C 336.500 6.758,336.406 6.833,336.292 6.834 C 336.177 6.834,335.865 7.021,335.599 7.250 C 335.333 7.479,335.053 7.667,334.978 7.667 C 334.694 7.667,332.384 10.171,332.014 10.880 C 331.883 11.129,331.715 11.333,331.639 11.333 C 331.562 11.333,331.500 11.483,331.500 11.667 C 331.500 11.850,331.444 12.001,331.375 12.001 C 331.244 12.003,330.833 12.794,330.833 13.045 C 330.833 13.125,330.721 13.303,330.583 13.440 C 330.446 13.578,330.333 13.831,330.333 14.002 C 330.333 14.173,330.258 14.360,330.167 14.417 C 330.075 14.473,330.000 14.773,330.000 15.083 C 330.000 15.393,329.925 15.693,329.833 15.750 C 329.619 15.883,329.611 20.879,329.824 21.572 C 329.911 21.853,330.105 22.515,330.256 23.042 C 330.407 23.569,330.599 24.000,330.682 24.000 C 330.765 24.000,330.833 24.150,330.833 24.333 C 330.833 24.517,330.908 24.667,331.000 24.667 C 331.092 24.667,331.167 24.817,331.167 25.000 C 331.167 25.183,331.242 25.333,331.333 25.333 C 331.425 25.333,331.500 25.447,331.500 25.585 C 331.500 25.723,331.725 26.072,332.000 26.360 C 332.275 26.647,332.500 26.948,332.500 27.028 C 332.500 27.218,334.282 29.000,334.472 29.000 C 334.552 29.000,334.853 29.225,335.140 29.500 C 335.428 29.775,335.777 30.000,335.915 30.000 C 336.053 30.000,336.167 30.097,336.167 30.215 C 336.167 30.396,339.032 31.946,340.083 32.333 C 340.267 32.400,340.604 32.530,340.833 32.622 C 341.063 32.714,341.438 32.864,341.667 32.955 C 341.896 33.047,342.290 33.207,342.542 33.311 C 342.794 33.415,343.169 33.564,343.375 33.643 C 343.844 33.822,344.953 34.366,345.489 34.679 C 346.123 35.051,347.333 36.297,347.333 36.579 C 347.333 36.719,347.408 36.833,347.500 36.833 C 347.880 36.833,347.602 38.443,347.155 38.833 C 347.102 38.879,347.011 39.048,346.951 39.208 C 346.892 39.369,346.729 39.500,346.589 39.500 C 346.448 39.500,346.333 39.575,346.333 39.667 C 346.333 39.758,346.183 39.833,346.000 39.833 C 345.817 39.833,345.667 39.908,345.667 40.000 C 345.667 40.092,345.367 40.167,345.000 40.167 C 344.633 40.167,344.333 40.242,344.333 40.333 C 344.333 40.430,343.806 40.500,343.083 40.500 C 342.361 40.500,341.833 40.430,341.833 40.333 C 341.833 40.241,341.389 40.167,340.833 40.167 C 340.278 40.167,339.833 40.093,339.833 40.000 C 339.833 39.908,339.575 39.833,339.260 39.833 C 338.944 39.833,338.640 39.758,338.583 39.667 C 338.527 39.575,338.260 39.500,337.990 39.500 C 337.721 39.500,337.500 39.425,337.500 39.333 C 337.500 39.242,337.354 39.167,337.177 39.167 C 336.999 39.167,336.807 39.092,336.750 39.000 C 336.693 38.908,336.464 38.833,336.240 38.833 C 336.016 38.833,335.833 38.758,335.833 38.667 C 335.833 38.575,335.683 38.500,335.500 38.500 C 335.317 38.500,335.167 38.425,335.167 38.333 C 335.167 38.242,335.017 38.167,334.833 38.167 C 334.650 38.167,334.500 38.092,334.500 38.000 C 334.500 37.908,334.350 37.833,334.167 37.833 C 333.983 37.833,333.833 37.758,333.833 37.667 C 333.833 37.575,333.683 37.500,333.500 37.500 C 333.317 37.500,333.167 37.425,333.167 37.333 C 333.167 37.242,333.054 37.167,332.917 37.167 C 332.779 37.167,332.667 37.092,332.667 37.000 C 332.667 36.908,332.554 36.833,332.417 36.833 C 332.279 36.833,332.167 36.758,332.167 36.667 C 332.167 36.575,332.054 36.500,331.917 36.500 C 331.779 36.500,331.667 36.443,331.667 36.374 C 331.667 36.085,330.638 35.777,330.484 36.020 C 330.404 36.146,330.337 39.081,330.336 42.542 L 330.333 48.833 330.750 48.833 C 330.979 48.833,331.167 48.908,331.167 49.000 C 331.167 49.092,331.392 49.167,331.667 49.167 C 331.942 49.167,332.167 49.242,332.167 49.333 C 332.167 49.425,332.392 49.500,332.667 49.500 C 332.942 49.500,333.167 49.575,333.167 49.667 C 333.167 49.758,333.392 49.833,333.667 49.833 C 333.942 49.833,334.167 49.908,334.167 50.000 C 334.167 50.092,334.534 50.167,334.982 50.167 C 335.527 50.167,335.827 50.244,335.887 50.400 C 335.978 50.637,336.285 50.691,339.417 51.018 C 343.411 51.436,351.080 51.011,351.297 50.359 C 351.332 50.253,351.655 50.167,352.014 50.167 C 352.373 50.167,352.667 50.092,352.667 50.000 C 352.667 49.908,352.892 49.833,353.167 49.833 C 353.442 49.833,353.667 49.758,353.667 49.667 C 353.667 49.575,353.892 49.500,354.167 49.500 C 354.442 49.500,354.667 49.425,354.667 49.333 C 354.667 49.242,354.817 49.167,355.000 49.167 C 355.183 49.167,355.333 49.092,355.333 49.000 C 355.333 48.908,355.483 48.833,355.667 48.833 C 355.850 48.833,356.000 48.758,356.000 48.667 C 356.000 48.575,356.150 48.500,356.333 48.500 C 356.517 48.500,356.667 48.425,356.667 48.333 C 356.667 48.242,356.800 48.167,356.963 48.167 C 357.126 48.167,357.368 48.017,357.500 47.833 C 357.632 47.650,357.837 47.500,357.956 47.500 C 358.222 47.500,361.000 44.744,361.000 44.480 C 361.000 44.375,361.149 44.160,361.332 44.002 C 361.757 43.632,362.826 41.529,362.830 41.052 C 362.832 40.851,362.908 40.640,363.000 40.583 C 363.092 40.527,363.167 40.200,363.167 39.857 C 363.167 39.514,363.246 39.154,363.342 39.058 C 363.680 38.720,363.351 32.800,362.982 32.572 C 362.900 32.522,362.833 32.371,362.833 32.238 C 362.833 31.663,361.236 28.886,360.795 28.694 C 360.724 28.664,360.667 28.564,360.667 28.473 C 360.667 28.183,357.932 25.667,357.617 25.667 C 357.502 25.667,357.299 25.517,357.167 25.333 C 357.035 25.150,356.827 25.000,356.706 25.000 C 356.585 25.000,356.325 24.850,356.128 24.667 C 355.931 24.483,355.672 24.333,355.552 24.333 C 355.432 24.333,355.333 24.258,355.333 24.167 C 355.333 24.075,355.183 24.000,355.000 24.000 C 354.817 24.000,354.667 23.925,354.667 23.833 C 354.667 23.742,354.517 23.667,354.333 23.667 C 354.150 23.667,354.000 23.592,354.000 23.500 C 354.000 23.408,353.850 23.333,353.667 23.333 C 353.483 23.333,353.333 23.258,353.333 23.167 C 353.333 23.075,353.183 23.000,353.000 23.000 C 352.817 23.000,352.667 22.925,352.667 22.833 C 352.667 22.742,352.521 22.667,352.343 22.667 C 352.165 22.667,351.973 22.592,351.917 22.500 C 351.860 22.408,351.631 22.333,351.407 22.333 C 351.183 22.333,351.000 22.258,351.000 22.167 C 351.000 22.075,350.850 22.000,350.667 22.000 C 350.483 22.000,350.333 21.925,350.333 21.833 C 350.333 21.742,350.146 21.667,349.917 21.667 C 349.688 21.667,349.500 21.592,349.500 21.500 C 349.500 21.408,349.313 21.333,349.083 21.333 C 348.854 21.333,348.667 21.258,348.667 21.167 C 348.667 21.075,348.517 21.000,348.333 21.000 C 348.150 21.000,348.000 20.925,348.000 20.833 C 348.000 20.742,347.850 20.667,347.667 20.667 C 347.483 20.667,347.333 20.610,347.333 20.541 C 347.333 20.471,347.123 20.322,346.867 20.208 C 346.219 19.922,345.167 18.927,345.167 18.603 C 345.167 18.454,345.092 18.333,345.000 18.333 C 344.908 18.333,344.833 18.033,344.833 17.667 C 344.833 17.300,344.908 17.000,345.000 17.000 C 345.092 17.000,345.167 16.884,345.167 16.742 C 345.167 16.294,346.358 15.333,346.914 15.333 C 347.053 15.333,347.167 15.258,347.167 15.167 C 347.167 15.075,347.500 15.000,347.907 15.000 C 348.314 15.000,348.693 14.925,348.750 14.833 C 348.879 14.624,350.544 14.613,350.758 14.820 C 350.845 14.904,351.404 15.013,352.000 15.063 C 353.801 15.212,354.667 15.359,354.667 15.517 C 354.667 15.599,354.887 15.667,355.157 15.667 C 355.426 15.667,355.693 15.742,355.750 15.833 C 355.807 15.925,356.036 16.000,356.260 16.000 C 356.484 16.000,356.667 16.075,356.667 16.167 C 356.667 16.258,356.892 16.333,357.167 16.333 C 357.442 16.333,357.667 16.408,357.667 16.500 C 357.667 16.592,357.817 16.667,358.000 16.667 C 358.183 16.667,358.333 16.742,358.333 16.833 C 358.333 16.925,358.439 17.000,358.568 17.000 C 358.770 17.000,359.186 17.180,360.524 17.844 C 360.989 18.076,361.000 17.940,361.000 11.725 L 361.000 5.673 360.542 5.581 C 360.290 5.530,359.853 5.416,359.572 5.328 C 359.290 5.239,358.863 5.167,358.623 5.167 C 358.383 5.167,358.140 5.092,358.083 5.000 C 358.027 4.908,357.689 4.833,357.333 4.833 C 356.977 4.833,356.640 4.758,356.583 4.667 C 356.527 4.575,356.002 4.500,355.417 4.500 C 354.832 4.500,354.307 4.425,354.250 4.333 C 354.189 4.234,353.113 4.167,351.583 4.167 C 350.054 4.167,348.978 4.099,348.917 4.000 C 348.860 3.908,348.556 3.833,348.240 3.833 C 347.925 3.833,347.667 3.908,347.667 4.000 M384.583 4.000 C 384.524 4.097,383.609 4.167,382.407 4.167 C 381.136 4.167,380.333 4.231,380.333 4.333 C 380.333 4.425,379.958 4.500,379.500 4.500 C 379.042 4.500,378.667 4.575,378.667 4.667 C 378.667 4.758,378.367 4.833,378.000 4.833 C 377.633 4.833,377.333 4.908,377.333 5.000 C 377.333 5.092,377.108 5.167,376.833 5.167 C 376.558 5.167,376.333 5.242,376.333 5.333 C 376.333 5.425,376.182 5.500,375.998 5.500 C 375.813 5.500,375.532 5.567,375.373 5.648 C 375.214 5.729,374.577 6.047,373.958 6.354 C 373.340 6.662,372.833 6.970,372.833 7.040 C 372.833 7.110,372.740 7.168,372.625 7.169 C 372.175 7.173,369.167 9.960,369.167 10.373 C 369.167 10.494,369.017 10.701,368.833 10.833 C 368.650 10.965,368.500 11.190,368.500 11.333 C 368.500 11.476,368.350 11.701,368.167 11.833 C 367.983 11.965,367.833 12.207,367.833 12.370 C 367.833 12.533,367.758 12.667,367.667 12.667 C 367.575 12.667,367.500 12.892,367.500 13.167 C 367.500 13.442,367.425 13.667,367.333 13.667 C 367.242 13.667,367.167 13.892,367.167 14.167 C 367.167 14.442,367.092 14.667,367.000 14.667 C 366.908 14.667,366.833 15.042,366.833 15.500 C 366.833 15.958,366.758 16.333,366.667 16.333 C 366.563 16.333,366.500 17.222,366.500 18.667 C 366.500 20.111,366.563 21.000,366.667 21.000 C 366.758 21.000,366.833 21.375,366.833 21.833 C 366.833 22.292,366.908 22.667,367.000 22.667 C 367.092 22.667,367.167 22.892,367.167 23.167 C 367.167 23.442,367.242 23.667,367.333 23.667 C 367.425 23.667,367.500 23.817,367.500 24.000 C 367.500 24.183,367.575 24.333,367.667 24.333 C 367.758 24.333,367.833 24.483,367.833 24.667 C 367.833 24.850,367.908 25.000,368.000 25.000 C 368.092 25.000,368.167 25.150,368.167 25.333 C 368.167 25.517,368.242 25.667,368.333 25.667 C 368.425 25.667,368.500 25.781,368.500 25.921 C 368.500 26.145,368.810 26.514,370.282 28.038 C 371.099 28.884,372.017 29.667,372.192 29.667 C 372.294 29.667,372.499 29.802,372.647 29.967 C 373.138 30.514,376.218 32.167,376.745 32.167 C 376.885 32.167,377.000 32.228,377.000 32.303 C 377.000 32.378,377.375 32.542,377.833 32.667 C 378.292 32.791,378.667 32.941,378.667 33.000 C 378.667 33.059,379.042 33.209,379.500 33.333 C 379.958 33.458,380.333 33.622,380.333 33.697 C 380.333 33.772,380.483 33.833,380.667 33.833 C 380.850 33.833,381.000 33.908,381.000 34.000 C 381.000 34.092,381.150 34.167,381.333 34.167 C 381.517 34.167,381.667 34.242,381.667 34.333 C 381.667 34.425,381.817 34.500,382.000 34.500 C 382.183 34.500,382.333 34.562,382.333 34.639 C 382.333 34.715,382.540 34.883,382.792 35.014 C 383.365 35.310,383.524 35.468,383.820 36.042 C 383.950 36.294,384.119 36.500,384.195 36.500 C 384.413 36.500,384.356 38.298,384.125 38.701 C 383.795 39.277,383.205 39.833,382.924 39.833 C 382.783 39.833,382.667 39.908,382.667 40.000 C 382.667 40.092,382.371 40.167,382.010 40.167 C 381.649 40.167,381.307 40.242,381.250 40.333 C 381.115 40.553,378.667 40.553,378.667 40.333 C 378.667 40.242,378.254 40.167,377.750 40.167 C 377.246 40.167,376.833 40.092,376.833 40.000 C 376.833 39.908,376.533 39.833,376.167 39.833 C 375.800 39.833,375.500 39.758,375.500 39.667 C 375.500 39.575,375.275 39.500,375.000 39.500 C 374.725 39.500,374.500 39.425,374.500 39.333 C 374.500 39.242,374.275 39.167,374.000 39.167 C 373.725 39.167,373.500 39.092,373.500 39.000 C 373.500 38.908,373.350 38.833,373.167 38.833 C 372.983 38.833,372.833 38.758,372.833 38.667 C 372.833 38.575,372.608 38.500,372.333 38.500 C 372.058 38.500,371.833 38.425,371.833 38.333 C 371.833 38.242,371.683 38.167,371.500 38.167 C 371.317 38.167,371.167 38.092,371.167 38.000 C 371.167 37.908,371.033 37.833,370.870 37.833 C 370.707 37.833,370.465 37.683,370.333 37.500 C 370.201 37.317,369.960 37.167,369.797 37.167 C 369.633 37.167,369.500 37.092,369.500 37.000 C 369.500 36.908,369.378 36.833,369.228 36.833 C 369.078 36.833,368.834 36.702,368.684 36.542 C 368.335 36.166,367.741 35.833,367.419 35.833 C 367.198 35.833,367.167 36.641,367.167 42.333 C 367.167 48.722,367.172 48.833,367.500 48.833 C 367.683 48.833,367.833 48.908,367.833 49.000 C 367.833 49.092,368.058 49.167,368.333 49.167 C 368.608 49.167,368.833 49.242,368.833 49.333 C 368.833 49.425,369.058 49.500,369.333 49.500 C 369.608 49.500,369.833 49.575,369.833 49.667 C 369.833 49.758,370.133 49.833,370.500 49.833 C 370.867 49.833,371.167 49.908,371.167 50.000 C 371.167 50.092,371.435 50.167,371.762 50.167 C 372.089 50.167,372.470 50.279,372.607 50.417 C 372.759 50.568,373.167 50.667,373.645 50.667 C 374.079 50.667,374.505 50.737,374.592 50.822 C 375.082 51.303,385.750 51.303,386.242 50.822 C 386.329 50.736,386.713 50.667,387.096 50.667 C 387.512 50.667,387.876 50.566,388.000 50.417 C 388.114 50.279,388.461 50.167,388.770 50.167 C 389.080 50.167,389.333 50.092,389.333 50.000 C 389.333 49.908,389.591 49.833,389.907 49.833 C 390.222 49.833,390.527 49.758,390.583 49.667 C 390.640 49.575,390.832 49.500,391.010 49.500 C 391.188 49.500,391.333 49.425,391.333 49.333 C 391.333 49.242,391.558 49.167,391.833 49.167 C 392.108 49.167,392.333 49.092,392.333 49.000 C 392.333 48.908,392.483 48.833,392.667 48.833 C 392.850 48.833,393.000 48.772,393.000 48.698 C 393.000 48.623,393.262 48.459,393.583 48.333 C 393.904 48.207,394.167 48.043,394.167 47.969 C 394.167 47.894,394.268 47.833,394.392 47.833 C 394.516 47.833,394.853 47.608,395.140 47.333 C 395.428 47.058,395.721 46.831,395.790 46.829 C 395.860 46.826,396.179 46.521,396.500 46.150 C 396.821 45.780,397.327 45.222,397.625 44.910 C 397.923 44.599,398.167 44.264,398.167 44.165 C 398.167 44.067,398.317 43.825,398.500 43.628 C 398.683 43.431,398.833 43.172,398.833 43.052 C 398.833 42.932,398.908 42.833,399.000 42.833 C 399.092 42.833,399.167 42.688,399.167 42.510 C 399.167 42.332,399.242 42.140,399.333 42.083 C 399.425 42.027,399.500 41.804,399.500 41.587 C 399.500 41.371,399.594 41.163,399.708 41.125 C 399.868 41.072,399.917 40.030,399.917 36.667 C 399.917 33.304,399.868 32.262,399.708 32.208 C 399.594 32.170,399.500 31.962,399.500 31.746 C 399.500 31.530,399.425 31.307,399.333 31.250 C 399.242 31.193,399.167 31.001,399.167 30.823 C 399.167 30.646,399.110 30.500,399.041 30.500 C 398.971 30.500,398.821 30.289,398.707 30.031 C 398.593 29.774,398.350 29.402,398.167 29.205 C 397.983 29.008,397.833 28.801,397.833 28.745 C 397.833 28.626,397.723 28.502,396.508 27.261 C 396.008 26.751,395.539 26.333,395.465 26.333 C 395.391 26.333,395.095 26.108,394.807 25.833 C 394.519 25.558,394.197 25.333,394.090 25.333 C 393.983 25.333,393.747 25.202,393.565 25.042 C 393.096 24.629,392.547 24.333,392.252 24.333 C 392.114 24.333,392.000 24.258,392.000 24.167 C 392.000 24.075,391.882 24.000,391.738 24.000 C 391.594 24.000,391.360 23.884,391.218 23.742 C 391.076 23.600,390.744 23.440,390.480 23.388 C 390.216 23.335,390.000 23.226,390.000 23.146 C 390.000 23.066,389.850 23.000,389.667 23.000 C 389.483 23.000,389.333 22.925,389.333 22.833 C 389.333 22.742,389.183 22.667,389.000 22.667 C 388.817 22.667,388.667 22.592,388.667 22.500 C 388.667 22.408,388.521 22.333,388.343 22.333 C 388.165 22.333,387.973 22.258,387.917 22.167 C 387.860 22.075,387.631 22.000,387.407 22.000 C 387.183 22.000,387.000 21.925,387.000 21.833 C 387.000 21.742,386.850 21.667,386.667 21.667 C 386.483 21.667,386.333 21.592,386.333 21.500 C 386.333 21.408,386.183 21.333,386.000 21.333 C 385.817 21.333,385.667 21.258,385.667 21.167 C 385.667 21.075,385.569 21.000,385.450 21.000 C 385.143 21.000,384.336 20.608,384.335 20.458 C 384.334 20.390,384.183 20.333,384.000 20.333 C 383.817 20.333,383.667 20.258,383.667 20.167 C 383.667 20.075,383.546 20.000,383.397 20.000 C 383.007 20.000,382.000 18.835,382.000 18.384 C 382.000 18.173,381.925 18.000,381.833 18.000 C 381.742 18.000,381.667 17.817,381.667 17.593 C 381.667 17.369,381.742 17.140,381.833 17.083 C 381.925 17.027,382.000 16.869,382.000 16.733 C 382.000 16.407,382.747 15.667,383.076 15.667 C 383.217 15.667,383.333 15.592,383.333 15.500 C 383.333 15.408,383.483 15.333,383.667 15.333 C 383.850 15.333,384.000 15.258,384.000 15.167 C 384.000 15.075,384.333 15.000,384.740 15.000 C 385.147 15.000,385.527 14.925,385.583 14.833 C 385.718 14.616,387.449 14.616,387.583 14.833 C 387.640 14.925,388.202 15.000,388.833 15.000 C 389.464 15.000,390.027 15.075,390.083 15.167 C 390.140 15.258,390.482 15.333,390.843 15.333 C 391.204 15.333,391.500 15.408,391.500 15.500 C 391.500 15.592,391.669 15.668,391.875 15.669 C 392.282 15.672,393.423 16.034,393.608 16.219 C 393.671 16.282,393.897 16.333,394.111 16.333 C 394.325 16.333,394.500 16.408,394.500 16.500 C 394.500 16.592,394.650 16.667,394.833 16.667 C 395.017 16.667,395.167 16.742,395.167 16.833 C 395.167 16.925,395.286 17.000,395.433 17.000 C 395.579 17.000,396.116 17.229,396.626 17.509 C 397.886 18.201,397.836 18.452,397.790 11.583 L 397.750 5.583 397.167 5.530 C 396.846 5.500,396.512 5.407,396.425 5.321 C 396.338 5.236,396.024 5.167,395.727 5.167 C 395.429 5.167,395.140 5.092,395.083 5.000 C 395.027 4.908,394.610 4.833,394.157 4.833 C 393.704 4.833,393.333 4.758,393.333 4.667 C 393.333 4.571,392.833 4.500,392.167 4.500 C 391.500 4.500,391.000 4.429,391.000 4.333 C 391.000 4.230,390.059 4.167,388.510 4.167 C 387.030 4.167,385.978 4.099,385.917 4.000 C 385.860 3.908,385.560 3.833,385.250 3.833 C 384.940 3.833,384.640 3.908,384.583 4.000 M81.333 27.499 L 81.333 50.167 87.583 50.167 L 93.833 50.167 93.833 34.990 C 93.833 24.915,93.889 19.848,94.000 19.917 C 94.092 19.973,94.167 20.390,94.167 20.843 C 94.167 21.296,94.242 21.667,94.333 21.667 C 94.425 21.667,94.500 22.042,94.500 22.500 C 94.500 22.958,94.575 23.333,94.667 23.333 C 94.758 23.333,94.833 23.633,94.833 24.000 C 94.833 24.367,94.908 24.667,95.000 24.667 C 95.092 24.667,95.167 24.925,95.167 25.240 C 95.167 25.556,95.233 25.855,95.315 25.905 C 95.455 25.992,95.506 26.198,95.764 27.710 C 95.822 28.054,95.937 28.378,96.018 28.428 C 96.100 28.478,96.167 28.778,96.167 29.093 C 96.167 29.409,96.242 29.667,96.333 29.667 C 96.425 29.667,96.500 29.967,96.500 30.333 C 96.500 30.700,96.575 31.000,96.667 31.000 C 96.758 31.000,96.833 31.296,96.833 31.657 C 96.833 32.018,96.908 32.360,97.000 32.417 C 97.092 32.473,97.167 32.773,97.167 33.083 C 97.167 33.393,97.242 33.693,97.333 33.750 C 97.425 33.807,97.500 34.069,97.500 34.333 C 97.500 34.598,97.575 34.860,97.667 34.917 C 97.758 34.973,97.833 35.273,97.833 35.583 C 97.833 35.893,97.908 36.193,98.000 36.250 C 98.092 36.307,98.167 36.569,98.167 36.833 C 98.167 37.098,98.242 37.360,98.333 37.417 C 98.425 37.473,98.500 37.773,98.500 38.083 C 98.500 38.393,98.575 38.693,98.667 38.750 C 98.758 38.807,98.833 39.107,98.833 39.417 C 98.833 39.727,98.900 40.022,98.982 40.072 C 99.063 40.122,99.166 40.408,99.211 40.707 C 99.256 41.006,99.420 41.662,99.576 42.167 C 99.732 42.671,99.899 43.327,99.948 43.625 C 99.997 43.923,100.103 44.167,100.185 44.167 C 100.267 44.167,100.333 44.425,100.333 44.740 C 100.333 45.056,100.408 45.360,100.500 45.417 C 100.592 45.473,100.667 45.740,100.667 46.010 C 100.667 46.279,100.742 46.500,100.833 46.500 C 100.925 46.500,101.000 46.800,101.000 47.167 C 101.000 47.533,101.075 47.833,101.167 47.833 C 101.258 47.833,101.333 48.133,101.333 48.500 C 101.333 48.867,101.408 49.167,101.500 49.167 C 101.592 49.167,101.667 49.392,101.667 49.667 L 101.667 50.167 108.257 50.167 C 115.615 50.167,115.363 50.207,115.551 49.000 C 115.602 48.679,115.720 48.117,115.814 47.750 C 115.908 47.383,116.067 46.746,116.167 46.333 C 116.267 45.921,116.420 45.302,116.508 44.958 C 116.595 44.615,116.748 44.015,116.847 43.625 C 116.946 43.235,117.066 42.635,117.115 42.291 C 117.163 41.946,117.269 41.623,117.351 41.572 C 117.433 41.522,117.500 41.185,117.500 40.823 C 117.500 40.462,117.575 40.167,117.667 40.167 C 117.758 40.167,117.833 39.867,117.833 39.500 C 117.833 39.133,117.908 38.833,118.000 38.833 C 118.092 38.833,118.167 38.533,118.167 38.167 C 118.167 37.800,118.242 37.500,118.333 37.500 C 118.425 37.500,118.500 37.204,118.500 36.843 C 118.500 36.482,118.575 36.140,118.667 36.083 C 118.758 36.027,118.833 35.727,118.833 35.417 C 118.833 35.107,118.908 34.807,119.000 34.750 C 119.092 34.693,119.167 34.393,119.167 34.083 C 119.167 33.773,119.242 33.473,119.333 33.417 C 119.425 33.360,119.500 33.018,119.500 32.657 C 119.500 32.296,119.575 32.000,119.667 32.000 C 119.758 32.000,119.833 31.700,119.833 31.333 C 119.833 30.967,119.908 30.667,120.000 30.667 C 120.092 30.667,120.167 30.367,120.167 30.000 C 120.167 29.633,120.242 29.333,120.333 29.333 C 120.425 29.333,120.500 29.038,120.500 28.677 C 120.500 28.315,120.567 27.978,120.649 27.928 C 120.731 27.877,120.837 27.554,120.885 27.209 C 120.934 26.865,121.060 26.246,121.167 25.833 C 121.273 25.421,121.400 24.802,121.448 24.457 C 121.496 24.113,121.602 23.790,121.684 23.739 C 121.766 23.688,121.833 23.351,121.833 22.990 C 121.833 22.629,121.908 22.333,122.000 22.333 C 122.092 22.333,122.167 22.038,122.167 21.677 C 122.167 21.315,122.242 20.973,122.333 20.917 C 122.425 20.860,122.500 20.481,122.500 20.073 C 122.500 19.666,122.575 19.333,122.667 19.333 C 122.777 19.333,122.833 24.583,122.833 34.750 L 122.833 50.167 129.750 50.167 L 136.667 50.167 136.667 27.500 L 136.667 4.833 126.417 4.833 C 116.278 4.833,116.167 4.837,116.167 5.167 C 116.167 5.350,116.092 5.500,116.000 5.500 C 115.908 5.500,115.833 5.800,115.833 6.167 C 115.833 6.533,115.758 6.833,115.667 6.833 C 115.575 6.833,115.500 7.171,115.500 7.583 C 115.500 7.996,115.442 8.333,115.370 8.333 C 115.221 8.333,114.663 10.402,114.665 10.948 C 114.666 11.149,114.592 11.360,114.500 11.417 C 114.408 11.473,114.333 11.773,114.333 12.083 C 114.333 12.393,114.258 12.693,114.167 12.750 C 114.075 12.807,114.000 13.107,114.000 13.417 C 114.000 13.727,113.933 14.022,113.851 14.072 C 113.711 14.159,113.623 14.588,113.395 16.292 C 113.342 16.681,113.232 17.000,113.150 17.000 C 113.067 17.000,113.000 17.300,113.000 17.667 C 113.000 18.033,112.925 18.333,112.833 18.333 C 112.742 18.333,112.667 18.629,112.667 18.990 C 112.667 19.351,112.592 19.693,112.500 19.750 C 112.408 19.807,112.333 20.107,112.333 20.417 C 112.333 20.727,112.258 21.027,112.167 21.083 C 112.075 21.140,112.000 21.477,112.000 21.833 C 112.000 22.189,111.925 22.527,111.833 22.583 C 111.742 22.640,111.667 22.982,111.667 23.343 C 111.667 23.704,111.592 24.000,111.500 24.000 C 111.408 24.000,111.333 24.296,111.333 24.657 C 111.333 25.018,111.258 25.360,111.167 25.417 C 111.075 25.473,111.000 25.773,111.000 26.083 C 111.000 26.393,110.925 26.693,110.833 26.750 C 110.742 26.807,110.667 27.149,110.667 27.510 C 110.667 27.871,110.592 28.167,110.500 28.167 C 110.408 28.167,110.333 28.542,110.333 29.000 C 110.333 29.458,110.265 29.833,110.182 29.833 C 110.041 29.833,109.986 30.176,109.735 32.625 C 109.612 33.836,109.333 34.183,109.333 33.127 C 109.333 32.701,109.258 32.307,109.167 32.250 C 109.075 32.193,109.000 31.743,109.000 31.250 C 109.000 30.757,108.925 30.307,108.833 30.250 C 108.742 30.193,108.667 29.851,108.667 29.490 C 108.667 29.129,108.592 28.833,108.500 28.833 C 108.408 28.833,108.333 28.538,108.333 28.177 C 108.333 27.815,108.258 27.473,108.167 27.417 C 108.075 27.360,108.000 27.060,108.000 26.750 C 108.000 26.440,107.925 26.140,107.833 26.083 C 107.742 26.027,107.667 25.727,107.667 25.417 C 107.667 25.107,107.592 24.807,107.500 24.750 C 107.408 24.693,107.333 24.393,107.333 24.083 C 107.333 23.773,107.258 23.473,107.167 23.417 C 107.075 23.360,107.000 23.060,107.000 22.750 C 107.000 22.440,106.925 22.140,106.833 22.083 C 106.742 22.027,106.667 21.727,106.667 21.417 C 106.667 21.107,106.592 20.807,106.500 20.750 C 106.408 20.693,106.333 20.393,106.333 20.083 C 106.333 19.773,106.267 19.478,106.185 19.428 C 106.045 19.341,105.994 19.135,105.736 17.623 C 105.678 17.279,105.563 16.956,105.482 16.905 C 105.400 16.855,105.333 16.560,105.333 16.250 C 105.333 15.940,105.258 15.640,105.167 15.583 C 105.075 15.527,105.000 15.227,105.000 14.917 C 105.000 14.607,104.925 14.307,104.833 14.250 C 104.742 14.193,104.667 13.889,104.667 13.573 C 104.667 13.258,104.592 13.000,104.500 13.000 C 104.408 13.000,104.333 12.700,104.333 12.333 C 104.333 11.967,104.258 11.667,104.167 11.667 C 104.075 11.667,104.000 11.367,104.000 11.000 C 104.000 10.633,103.925 10.333,103.833 10.333 C 103.742 10.333,103.667 10.038,103.667 9.677 C 103.667 9.315,103.592 8.973,103.500 8.917 C 103.408 8.860,103.333 8.560,103.333 8.250 C 103.333 7.940,103.258 7.640,103.167 7.583 C 103.075 7.527,103.000 7.237,103.000 6.940 C 103.000 6.643,102.930 6.329,102.845 6.242 C 102.760 6.155,102.666 5.821,102.637 5.500 L 102.583 4.917 91.958 4.874 L 81.333 4.831 81.333 27.499 M156.373 5.164 C 156.260 5.346,156.167 5.646,156.167 5.831 C 156.167 6.016,156.092 6.167,156.000 6.167 C 155.908 6.167,155.833 6.392,155.833 6.667 C 155.833 6.942,155.758 7.167,155.667 7.167 C 155.575 7.167,155.500 7.387,155.500 7.657 C 155.500 7.926,155.425 8.193,155.333 8.250 C 155.242 8.307,155.167 8.532,155.167 8.750 C 155.167 8.968,155.107 9.184,155.033 9.230 C 154.959 9.275,154.795 9.697,154.667 10.167 C 154.539 10.637,154.374 11.058,154.300 11.104 C 154.227 11.149,154.167 11.369,154.167 11.593 C 154.167 11.817,154.092 12.000,154.000 12.000 C 153.908 12.000,153.833 12.225,153.833 12.500 C 153.833 12.775,153.758 13.000,153.667 13.000 C 153.575 13.000,153.500 13.225,153.500 13.500 C 153.500 13.775,153.425 14.000,153.333 14.000 C 153.242 14.000,153.167 14.225,153.167 14.500 C 153.167 14.775,153.092 15.000,153.000 15.000 C 152.908 15.000,152.833 15.225,152.833 15.500 C 152.833 15.775,152.758 16.000,152.667 16.000 C 152.575 16.000,152.500 16.225,152.500 16.500 C 152.500 16.775,152.425 17.000,152.333 17.000 C 152.242 17.000,152.167 17.225,152.167 17.500 C 152.167 17.775,152.092 18.000,152.000 18.000 C 151.908 18.000,151.833 18.225,151.833 18.500 C 151.833 18.775,151.758 19.000,151.667 19.000 C 151.575 19.000,151.500 19.188,151.500 19.417 C 151.500 19.646,151.425 19.833,151.333 19.833 C 151.242 19.833,151.167 20.016,151.167 20.240 C 151.167 20.464,151.092 20.693,151.000 20.750 C 150.908 20.807,150.833 21.036,150.833 21.260 C 150.833 21.484,150.758 21.667,150.667 21.667 C 150.575 21.667,150.500 21.892,150.500 22.167 C 150.500 22.442,150.425 22.667,150.333 22.667 C 150.242 22.667,150.167 22.892,150.167 23.167 C 150.167 23.442,150.092 23.667,150.000 23.667 C 149.908 23.667,149.833 23.892,149.833 24.167 C 149.833 24.442,149.758 24.667,149.667 24.667 C 149.575 24.667,149.500 24.892,149.500 25.167 C 149.500 25.442,149.425 25.667,149.333 25.667 C 149.242 25.667,149.167 25.892,149.167 26.167 C 149.167 26.442,149.092 26.667,149.000 26.667 C 148.908 26.667,148.833 26.892,148.833 27.167 C 148.833 27.442,148.758 27.667,148.667 27.667 C 148.575 27.667,148.500 27.892,148.500 28.167 C 148.500 28.442,148.425 28.667,148.333 28.667 C 148.242 28.667,148.167 28.892,148.167 29.167 C 148.167 29.442,148.092 29.667,148.000 29.667 C 147.908 29.667,147.833 29.854,147.833 30.083 C 147.833 30.313,147.758 30.500,147.667 30.500 C 147.575 30.500,147.500 30.725,147.500 31.000 C 147.500 31.275,147.425 31.500,147.333 31.500 C 147.242 31.500,147.167 31.725,147.167 32.000 C 147.167 32.275,147.092 32.500,147.000 32.500 C 146.908 32.500,146.833 32.725,146.833 33.000 C 146.833 33.275,146.758 33.500,146.667 33.500 C 146.575 33.500,146.500 33.725,146.500 34.000 C 146.500 34.275,146.425 34.500,146.333 34.500 C 146.242 34.500,146.167 34.610,146.167 34.744 C 146.167 34.969,145.834 35.839,145.480 36.539 C 145.399 36.699,145.333 36.975,145.333 37.155 C 145.333 37.334,145.258 37.527,145.167 37.583 C 145.075 37.640,145.000 37.869,145.000 38.093 C 145.000 38.317,144.925 38.500,144.833 38.500 C 144.742 38.500,144.667 38.725,144.667 39.000 C 144.667 39.275,144.592 39.500,144.500 39.500 C 144.408 39.500,144.333 39.683,144.333 39.907 C 144.333 40.131,144.273 40.351,144.200 40.396 C 144.126 40.442,143.961 40.863,143.833 41.333 C 143.705 41.803,143.541 42.225,143.467 42.270 C 143.393 42.316,143.333 42.532,143.333 42.750 C 143.333 42.968,143.258 43.193,143.167 43.250 C 143.075 43.307,143.000 43.532,143.000 43.750 C 143.000 43.968,142.925 44.193,142.833 44.250 C 142.742 44.307,142.667 44.532,142.667 44.750 C 142.667 44.968,142.592 45.193,142.500 45.250 C 142.408 45.307,142.333 45.532,142.333 45.750 C 142.333 45.968,142.258 46.193,142.167 46.250 C 142.075 46.307,142.000 46.532,142.000 46.750 C 142.000 46.968,141.925 47.193,141.833 47.250 C 141.742 47.307,141.667 47.532,141.667 47.750 C 141.667 47.968,141.592 48.193,141.500 48.250 C 141.408 48.307,141.333 48.532,141.333 48.750 C 141.333 48.968,141.258 49.193,141.167 49.250 C 141.075 49.307,141.000 49.536,141.000 49.760 L 141.000 50.167 148.750 50.167 L 156.500 50.167 156.500 49.500 C 156.500 49.133,156.575 48.833,156.667 48.833 C 156.758 48.833,156.833 48.533,156.833 48.167 C 156.833 47.800,156.908 47.500,157.000 47.500 C 157.092 47.500,157.167 47.200,157.167 46.833 C 157.167 46.467,157.242 46.167,157.333 46.167 C 157.425 46.167,157.500 45.867,157.500 45.500 C 157.500 45.133,157.575 44.833,157.667 44.833 C 157.758 44.833,157.833 44.533,157.833 44.167 C 157.833 43.800,157.904 43.500,157.990 43.500 C 158.076 43.500,158.170 43.219,158.198 42.875 L 158.250 42.250 164.792 42.206 L 171.333 42.163 171.333 42.665 C 171.333 42.941,171.408 43.167,171.500 43.167 C 171.592 43.167,171.667 43.467,171.667 43.833 C 171.667 44.200,171.734 44.500,171.817 44.500 C 171.899 44.500,172.009 44.819,172.061 45.208 C 172.289 46.912,172.378 47.341,172.518 47.428 C 172.600 47.478,172.667 47.815,172.667 48.177 C 172.667 48.538,172.742 48.833,172.833 48.833 C 172.925 48.833,173.000 49.133,173.000 49.500 L 173.000 50.167 180.750 50.167 L 188.500 50.167 188.500 49.583 C 188.500 49.262,188.425 49.000,188.333 49.000 C 188.242 49.000,188.167 48.779,188.167 48.510 C 188.167 48.240,188.092 47.973,188.000 47.917 C 187.908 47.860,187.833 47.635,187.833 47.417 C 187.833 47.198,187.758 46.973,187.667 46.917 C 187.575 46.860,187.500 46.593,187.500 46.323 C 187.500 46.054,187.425 45.833,187.333 45.833 C 187.242 45.833,187.167 45.608,187.167 45.333 C 187.167 45.058,187.092 44.833,187.000 44.833 C 186.908 44.833,186.833 44.608,186.833 44.333 C 186.833 44.058,186.758 43.833,186.667 43.833 C 186.575 43.833,186.500 43.608,186.500 43.333 C 186.500 43.058,186.425 42.833,186.333 42.833 C 186.242 42.833,186.167 42.608,186.167 42.333 C 186.167 42.058,186.092 41.833,186.000 41.833 C 185.908 41.833,185.833 41.613,185.833 41.343 C 185.833 41.074,185.758 40.807,185.667 40.750 C 185.575 40.693,185.500 40.468,185.500 40.250 C 185.500 40.032,185.425 39.807,185.333 39.750 C 185.242 39.693,185.167 39.431,185.167 39.167 C 185.167 38.902,185.092 38.640,185.000 38.583 C 184.908 38.527,184.833 38.302,184.833 38.083 C 184.833 37.865,184.758 37.640,184.667 37.583 C 184.575 37.527,184.500 37.260,184.500 36.990 C 184.500 36.721,184.425 36.500,184.333 36.500 C 184.242 36.500,184.167 36.275,184.167 36.000 C 184.167 35.725,184.092 35.500,184.000 35.500 C 183.908 35.500,183.833 35.275,183.833 35.000 C 183.833 34.725,183.758 34.500,183.667 34.500 C 183.575 34.500,183.500 34.275,183.500 34.000 C 183.500 33.725,183.425 33.500,183.333 33.500 C 183.242 33.500,183.167 33.275,183.167 33.000 C 183.167 32.725,183.092 32.500,183.000 32.500 C 182.908 32.500,182.833 32.275,182.833 32.000 C 182.833 31.725,182.758 31.500,182.667 31.500 C 182.575 31.500,182.500 31.275,182.500 31.000 C 182.500 30.725,182.425 30.500,182.333 30.500 C 182.242 30.500,182.167 30.279,182.167 30.010 C 182.167 29.740,182.092 29.473,182.000 29.417 C 181.908 29.360,181.833 29.093,181.833 28.823 C 181.833 28.554,181.758 28.333,181.667 28.333 C 181.575 28.333,181.500 28.113,181.500 27.843 C 181.500 27.574,181.425 27.307,181.333 27.250 C 181.242 27.193,181.167 26.968,181.167 26.750 C 181.167 26.532,181.092 26.307,181.000 26.250 C 180.908 26.193,180.833 25.968,180.833 25.750 C 180.833 25.532,180.758 25.307,180.667 25.250 C 180.575 25.193,180.500 24.931,180.500 24.667 C 180.500 24.402,180.425 24.140,180.333 24.083 C 180.242 24.027,180.167 23.802,180.167 23.583 C 180.167 23.365,180.092 23.140,180.000 23.083 C 179.908 23.027,179.833 22.802,179.833 22.583 C 179.833 22.365,179.758 22.140,179.667 22.083 C 179.575 22.027,179.500 21.802,179.500 21.583 C 179.500 21.365,179.425 21.140,179.333 21.083 C 179.242 21.027,179.167 20.802,179.167 20.583 C 179.167 20.365,179.092 20.140,179.000 20.083 C 178.908 20.027,178.833 19.760,178.833 19.490 C 178.833 19.221,178.758 19.000,178.667 19.000 C 178.575 19.000,178.500 18.775,178.500 18.500 C 178.500 18.225,178.425 18.000,178.333 18.000 C 178.242 18.000,178.167 17.775,178.167 17.500 C 178.167 17.225,178.092 17.000,178.000 17.000 C 177.908 17.000,177.833 16.775,177.833 16.500 C 177.833 16.225,177.758 16.000,177.667 16.000 C 177.575 16.000,177.500 15.779,177.500 15.510 C 177.500 15.240,177.425 14.973,177.333 14.917 C 177.242 14.860,177.167 14.636,177.167 14.419 C 177.167 14.202,177.054 13.911,176.917 13.774 C 176.779 13.636,176.667 13.331,176.667 13.095 C 176.667 12.860,176.592 12.667,176.500 12.667 C 176.408 12.667,176.333 12.442,176.333 12.167 C 176.333 11.892,176.258 11.667,176.167 11.667 C 176.075 11.667,176.000 11.442,176.000 11.167 C 176.000 10.892,175.925 10.667,175.833 10.667 C 175.742 10.667,175.667 10.442,175.667 10.167 C 175.667 9.892,175.592 9.667,175.500 9.667 C 175.408 9.667,175.333 9.446,175.333 9.177 C 175.333 8.907,175.258 8.640,175.167 8.583 C 175.075 8.527,175.000 8.260,175.000 7.990 C 175.000 7.721,174.925 7.500,174.833 7.500 C 174.742 7.500,174.667 7.275,174.667 7.000 C 174.667 6.725,174.592 6.500,174.500 6.500 C 174.408 6.500,174.333 6.275,174.333 6.000 C 174.333 5.725,174.258 5.500,174.167 5.500 C 174.075 5.500,174.000 5.350,174.000 5.167 C 174.000 4.644,156.700 4.642,156.373 5.164 M192.778 4.944 C 192.591 5.132,192.646 29.967,192.833 30.083 C 192.932 30.145,193.000 31.196,193.000 32.677 C 193.000 34.226,193.063 35.167,193.167 35.167 C 193.259 35.167,193.333 35.611,193.333 36.167 C 193.333 36.722,193.407 37.167,193.500 37.167 C 193.592 37.167,193.667 37.467,193.667 37.833 C 193.667 38.200,193.742 38.500,193.833 38.500 C 193.925 38.500,194.000 38.721,194.000 38.990 C 194.000 39.260,194.075 39.527,194.167 39.583 C 194.258 39.640,194.333 39.869,194.333 40.093 C 194.333 40.317,194.408 40.500,194.500 40.500 C 194.592 40.500,194.667 40.725,194.667 41.000 C 194.667 41.275,194.742 41.500,194.833 41.500 C 194.925 41.500,195.000 41.650,195.000 41.833 C 195.000 42.017,195.075 42.167,195.167 42.167 C 195.258 42.167,195.333 42.282,195.333 42.424 C 195.333 42.565,195.483 42.842,195.667 43.038 C 195.850 43.235,196.000 43.495,196.000 43.615 C 196.000 43.735,196.075 43.833,196.167 43.833 C 196.258 43.833,196.333 43.943,196.333 44.078 C 196.333 44.349,199.747 47.833,200.013 47.833 C 200.105 47.833,200.342 47.983,200.538 48.167 C 200.735 48.350,200.995 48.500,201.115 48.500 C 201.235 48.500,201.333 48.575,201.333 48.667 C 201.333 48.758,201.483 48.833,201.667 48.833 C 201.850 48.833,202.000 48.908,202.000 49.000 C 202.000 49.092,202.150 49.167,202.333 49.167 C 202.517 49.167,202.667 49.242,202.667 49.333 C 202.667 49.425,202.892 49.500,203.167 49.500 C 203.442 49.500,203.667 49.575,203.667 49.667 C 203.667 49.758,203.892 49.833,204.167 49.833 C 204.442 49.833,204.667 49.908,204.667 50.000 C 204.667 50.092,204.860 50.167,205.095 50.167 C 205.331 50.167,205.636 50.279,205.774 50.417 C 205.917 50.560,206.324 50.667,206.729 50.667 C 207.116 50.667,207.505 50.736,207.592 50.821 C 208.099 51.315,217.556 51.312,218.075 50.818 C 218.162 50.735,218.585 50.667,219.016 50.667 C 219.557 50.667,219.827 50.590,219.894 50.417 C 219.954 50.260,220.209 50.167,220.578 50.167 C 220.902 50.167,221.167 50.092,221.167 50.000 C 221.167 49.908,221.392 49.833,221.667 49.833 C 221.942 49.833,222.167 49.758,222.167 49.667 C 222.167 49.575,222.392 49.500,222.667 49.500 C 222.942 49.500,223.167 49.425,223.167 49.333 C 223.167 49.242,223.272 49.167,223.401 49.167 C 223.679 49.167,225.059 48.472,225.139 48.292 C 225.169 48.223,225.301 48.167,225.431 48.167 C 225.560 48.167,225.667 48.092,225.667 48.000 C 225.667 47.908,225.780 47.833,225.919 47.833 C 226.200 47.833,229.667 44.437,229.667 44.162 C 229.667 44.065,229.817 43.825,230.000 43.628 C 230.183 43.431,230.333 43.172,230.333 43.052 C 230.333 42.932,230.408 42.833,230.500 42.833 C 230.592 42.833,230.667 42.683,230.667 42.500 C 230.667 42.317,230.742 42.167,230.833 42.167 C 230.925 42.167,231.000 42.017,231.000 41.833 C 231.000 41.650,231.075 41.500,231.167 41.500 C 231.258 41.500,231.333 41.275,231.333 41.000 C 231.333 40.725,231.408 40.500,231.500 40.500 C 231.592 40.500,231.667 40.317,231.667 40.093 C 231.667 39.869,231.742 39.640,231.833 39.583 C 231.925 39.527,232.000 39.260,232.000 38.990 C 232.000 38.721,232.075 38.500,232.167 38.500 C 232.258 38.500,232.333 38.200,232.333 37.833 C 232.333 37.467,232.408 37.167,232.500 37.167 C 232.593 37.167,232.667 36.722,232.667 36.167 C 232.667 35.611,232.741 35.167,232.833 35.167 C 232.936 35.167,233.000 34.337,233.000 33.010 C 233.000 31.752,233.069 30.810,233.167 30.750 C 233.275 30.683,233.333 26.165,233.333 17.740 L 233.333 4.833 226.085 4.833 L 218.837 4.833 218.773 18.875 C 218.712 32.338,218.649 34.500,218.317 34.500 C 218.234 34.500,218.167 34.725,218.167 35.000 C 218.167 35.275,218.092 35.500,218.000 35.500 C 217.908 35.500,217.833 35.650,217.833 35.833 C 217.833 36.017,217.758 36.167,217.667 36.167 C 217.575 36.167,217.500 36.281,217.500 36.421 C 217.500 36.752,216.085 38.167,215.754 38.167 C 215.614 38.167,215.500 38.242,215.500 38.333 C 215.500 38.425,215.350 38.500,215.167 38.500 C 214.983 38.500,214.833 38.575,214.833 38.667 C 214.833 38.767,214.142 38.833,213.093 38.833 C 212.113 38.833,211.308 38.761,211.250 38.667 C 211.193 38.575,211.001 38.500,210.823 38.500 C 210.646 38.500,210.500 38.425,210.500 38.333 C 210.500 38.242,210.387 38.167,210.250 38.167 C 210.112 38.167,210.000 38.092,210.000 38.000 C 210.000 37.908,209.918 37.833,209.817 37.833 C 209.610 37.833,208.667 36.872,208.667 36.661 C 208.667 36.586,208.569 36.425,208.450 36.304 C 208.331 36.182,208.099 35.652,207.935 35.125 C 207.770 34.598,207.568 34.167,207.484 34.167 C 207.401 34.167,207.333 33.867,207.333 33.500 C 207.333 33.133,207.258 32.833,207.167 32.833 C 207.057 32.833,207.000 28.056,207.000 18.833 L 207.000 4.833 199.944 4.833 C 196.064 4.833,192.839 4.883,192.778 4.944 M240.833 27.500 L 240.833 50.167 248.083 50.167 L 255.333 50.167 255.333 43.000 L 255.333 35.833 259.407 35.833 C 261.943 35.833,263.519 35.770,263.583 35.667 C 263.640 35.575,264.057 35.500,264.510 35.500 C 264.963 35.500,265.333 35.425,265.333 35.333 C 265.333 35.242,265.633 35.167,266.000 35.167 C 266.367 35.167,266.667 35.092,266.667 35.000 C 266.667 34.908,266.892 34.833,267.167 34.833 C 267.442 34.833,267.667 34.758,267.667 34.667 C 267.667 34.575,267.892 34.500,268.167 34.500 C 268.442 34.500,268.667 34.425,268.667 34.333 C 268.667 34.242,268.760 34.167,268.874 34.167 C 269.187 34.167,271.443 33.019,271.673 32.743 C 271.784 32.609,271.959 32.500,272.063 32.500 C 272.305 32.500,274.833 30.190,274.833 29.968 C 274.833 29.876,275.040 29.602,275.292 29.359 C 275.544 29.116,275.856 28.710,275.987 28.458 C 276.117 28.206,276.285 28.000,276.361 28.000 C 276.438 28.000,276.500 27.850,276.500 27.667 C 276.500 27.483,276.575 27.333,276.667 27.333 C 276.758 27.333,276.833 27.183,276.833 27.000 C 276.833 26.817,276.908 26.667,277.000 26.667 C 277.092 26.667,277.167 26.517,277.167 26.333 C 277.167 26.150,277.242 26.000,277.333 26.000 C 277.425 26.000,277.500 25.775,277.500 25.500 C 277.500 25.225,277.575 25.000,277.667 25.000 C 277.758 25.000,277.833 24.779,277.833 24.510 C 277.833 24.240,277.908 23.973,278.000 23.917 C 278.092 23.860,278.167 23.410,278.167 22.917 C 278.167 22.423,278.242 21.973,278.333 21.917 C 278.430 21.857,278.500 20.943,278.500 19.740 C 278.500 18.469,278.436 17.667,278.333 17.667 C 278.238 17.667,278.167 17.167,278.167 16.500 C 278.167 15.833,278.095 15.333,278.000 15.333 C 277.908 15.333,277.833 15.033,277.833 14.667 C 277.833 14.300,277.758 14.000,277.667 14.000 C 277.575 14.000,277.500 13.775,277.500 13.500 C 277.500 13.225,277.425 13.000,277.333 13.000 C 277.242 13.000,277.167 12.850,277.167 12.667 C 277.167 12.483,277.092 12.333,277.000 12.333 C 276.908 12.333,276.833 12.183,276.833 12.000 C 276.833 11.817,276.758 11.667,276.667 11.667 C 276.575 11.667,276.500 11.553,276.500 11.415 C 276.500 11.277,276.275 10.928,276.000 10.640 C 275.725 10.353,275.500 10.048,275.500 9.964 C 275.500 9.592,273.358 7.761,272.458 7.364 C 272.115 7.212,271.833 7.031,271.833 6.961 C 271.833 6.891,271.723 6.833,271.588 6.833 C 271.454 6.833,271.076 6.683,270.750 6.500 C 270.424 6.317,270.013 6.167,269.838 6.167 C 269.663 6.167,269.473 6.092,269.417 6.000 C 269.360 5.908,269.093 5.833,268.823 5.833 C 268.554 5.833,268.333 5.766,268.333 5.683 C 268.333 5.528,267.502 5.384,265.708 5.229 C 265.135 5.179,264.667 5.070,264.667 4.986 C 264.667 4.895,259.842 4.833,252.750 4.833 L 240.833 4.833 240.833 27.500 M294.667 5.167 C 294.667 5.350,294.592 5.500,294.500 5.500 C 294.408 5.500,294.333 5.683,294.333 5.907 C 294.333 6.131,294.258 6.360,294.167 6.417 C 294.075 6.473,294.000 6.698,294.000 6.917 C 294.000 7.135,293.925 7.360,293.833 7.417 C 293.742 7.473,293.667 7.703,293.667 7.927 C 293.667 8.150,293.592 8.333,293.500 8.333 C 293.408 8.333,293.333 8.558,293.333 8.833 C 293.333 9.108,293.258 9.333,293.167 9.333 C 293.075 9.333,293.000 9.558,293.000 9.833 C 293.000 10.108,292.925 10.333,292.833 10.333 C 292.742 10.333,292.667 10.558,292.667 10.833 C 292.667 11.108,292.592 11.333,292.500 11.333 C 292.408 11.333,292.333 11.558,292.333 11.833 C 292.333 12.108,292.258 12.333,292.167 12.333 C 292.075 12.333,292.000 12.558,292.000 12.833 C 292.000 13.108,291.925 13.333,291.833 13.333 C 291.742 13.333,291.667 13.558,291.667 13.833 C 291.667 14.108,291.592 14.333,291.500 14.333 C 291.408 14.333,291.333 14.558,291.333 14.833 C 291.333 15.108,291.258 15.333,291.167 15.333 C 291.075 15.333,291.000 15.484,291.000 15.669 C 291.000 15.854,290.925 16.154,290.833 16.336 C 290.742 16.518,290.592 16.816,290.500 16.998 C 290.408 17.180,290.333 17.480,290.333 17.664 C 290.333 17.849,290.258 18.000,290.167 18.000 C 290.075 18.000,290.000 18.225,290.000 18.500 C 290.000 18.775,289.925 19.000,289.833 19.000 C 289.742 19.000,289.667 19.225,289.667 19.500 C 289.667 19.775,289.592 20.000,289.500 20.000 C 289.408 20.000,289.333 20.225,289.333 20.500 C 289.333 20.775,289.258 21.000,289.167 21.000 C 289.075 21.000,289.000 21.225,289.000 21.500 C 289.000 21.775,288.925 22.000,288.833 22.000 C 288.742 22.000,288.667 22.225,288.667 22.500 C 288.667 22.775,288.592 23.000,288.500 23.000 C 288.408 23.000,288.333 23.225,288.333 23.500 C 288.333 23.775,288.258 24.000,288.167 24.000 C 288.075 24.000,288.000 24.225,288.000 24.500 C 288.000 24.775,287.925 25.000,287.833 25.000 C 287.742 25.000,287.667 25.183,287.667 25.407 C 287.667 25.631,287.592 25.860,287.500 25.917 C 287.408 25.973,287.333 26.198,287.333 26.417 C 287.333 26.635,287.258 26.860,287.167 26.917 C 287.075 26.973,287.000 27.203,287.000 27.427 C 287.000 27.650,286.925 27.833,286.833 27.833 C 286.742 27.833,286.667 28.058,286.667 28.333 C 286.667 28.608,286.592 28.833,286.500 28.833 C 286.408 28.833,286.333 29.058,286.333 29.333 C 286.333 29.608,286.258 29.833,286.167 29.833 C 286.075 29.833,286.000 30.058,286.000 30.333 C 286.000 30.608,285.925 30.833,285.833 30.833 C 285.742 30.833,285.667 31.058,285.667 31.333 C 285.667 31.608,285.592 31.833,285.500 31.833 C 285.408 31.833,285.333 32.058,285.333 32.333 C 285.333 32.608,285.258 32.833,285.167 32.833 C 285.075 32.833,285.000 33.058,285.000 33.333 C 285.000 33.608,284.925 33.833,284.833 33.833 C 284.742 33.833,284.667 34.058,284.667 34.333 C 284.667 34.608,284.597 34.833,284.511 34.833 C 284.426 34.833,284.309 35.002,284.251 35.208 C 284.193 35.415,284.075 35.752,283.990 35.958 C 283.904 36.165,283.763 36.502,283.678 36.708 C 283.592 36.915,283.363 37.571,283.170 38.167 C 282.976 38.762,282.746 39.380,282.659 39.539 C 282.571 39.699,282.500 39.975,282.500 40.155 C 282.500 40.334,282.425 40.527,282.333 40.583 C 282.242 40.640,282.167 40.865,282.167 41.083 C 282.167 41.302,282.092 41.527,282.000 41.583 C 281.908 41.640,281.833 41.869,281.833 42.093 C 281.833 42.317,281.758 42.500,281.667 42.500 C 281.575 42.500,281.500 42.725,281.500 43.000 C 281.500 43.275,281.425 43.500,281.333 43.500 C 281.242 43.500,281.167 43.725,281.167 44.000 C 281.167 44.275,281.092 44.500,281.000 44.500 C 280.908 44.500,280.833 44.725,280.833 45.000 C 280.833 45.275,280.758 45.500,280.667 45.500 C 280.575 45.500,280.500 45.683,280.500 45.907 C 280.500 46.131,280.425 46.360,280.333 46.417 C 280.242 46.473,280.167 46.698,280.167 46.917 C 280.167 47.135,280.092 47.360,280.000 47.417 C 279.908 47.473,279.833 47.703,279.833 47.927 C 279.833 48.150,279.758 48.333,279.667 48.333 C 279.575 48.333,279.500 48.558,279.500 48.833 C 279.500 49.108,279.425 49.333,279.333 49.333 C 279.242 49.333,279.167 49.521,279.167 49.750 L 279.167 50.167 286.917 50.167 L 294.667 50.167 294.667 49.667 C 294.667 49.392,294.742 49.167,294.833 49.167 C 294.925 49.167,295.000 48.867,295.000 48.500 C 295.000 48.133,295.075 47.833,295.167 47.833 C 295.258 47.833,295.333 47.533,295.333 47.167 C 295.333 46.800,295.408 46.500,295.500 46.500 C 295.592 46.500,295.667 46.200,295.667 45.833 C 295.667 45.467,295.742 45.167,295.833 45.167 C 295.925 45.167,296.000 44.867,296.000 44.500 C 296.000 44.133,296.075 43.833,296.167 43.833 C 296.258 43.833,296.333 43.565,296.333 43.238 C 296.333 42.135,296.134 42.167,303.155 42.167 C 309.389 42.167,309.500 42.173,309.500 42.500 C 309.500 42.683,309.575 42.833,309.667 42.833 C 309.758 42.833,309.833 43.129,309.833 43.490 C 309.833 43.851,309.908 44.193,310.000 44.250 C 310.092 44.307,310.167 44.644,310.167 45.000 C 310.167 45.356,310.242 45.693,310.333 45.750 C 310.425 45.807,310.500 46.149,310.500 46.510 C 310.500 46.871,310.575 47.167,310.667 47.167 C 310.758 47.167,310.833 47.467,310.833 47.833 C 310.833 48.200,310.908 48.500,311.000 48.500 C 311.092 48.500,311.167 48.768,311.167 49.095 C 311.167 50.209,310.849 50.167,319.155 50.167 L 326.667 50.167 326.667 49.500 C 326.667 49.133,326.592 48.833,326.500 48.833 C 326.408 48.833,326.333 48.613,326.333 48.343 C 326.333 48.074,326.258 47.807,326.167 47.750 C 326.075 47.693,326.000 47.426,326.000 47.157 C 326.000 46.887,325.925 46.667,325.833 46.667 C 325.742 46.667,325.667 46.446,325.667 46.177 C 325.667 45.907,325.592 45.640,325.500 45.583 C 325.408 45.527,325.333 45.302,325.333 45.083 C 325.333 44.865,325.258 44.640,325.167 44.583 C 325.075 44.527,325.000 44.260,325.000 43.990 C 325.000 43.721,324.925 43.500,324.833 43.500 C 324.742 43.500,324.667 43.275,324.667 43.000 C 324.667 42.725,324.592 42.500,324.500 42.500 C 324.408 42.500,324.333 42.275,324.333 42.000 C 324.333 41.725,324.258 41.500,324.167 41.500 C 324.075 41.500,324.000 41.275,324.000 41.000 C 324.000 40.725,323.925 40.500,323.833 40.500 C 323.742 40.500,323.667 40.275,323.667 40.000 C 323.667 39.725,323.592 39.500,323.500 39.500 C 323.408 39.500,323.333 39.275,323.333 39.000 C 323.333 38.725,323.258 38.500,323.167 38.500 C 323.075 38.500,323.000 38.275,323.000 38.000 C 323.000 37.725,322.925 37.500,322.833 37.500 C 322.742 37.500,322.667 37.311,322.667 37.081 C 322.667 36.851,322.599 36.532,322.516 36.373 C 322.434 36.214,322.276 35.746,322.167 35.333 C 322.057 34.921,321.900 34.453,321.817 34.294 C 321.734 34.135,321.667 33.816,321.667 33.586 C 321.667 33.355,321.592 33.167,321.500 33.167 C 321.408 33.167,321.333 32.942,321.333 32.667 C 321.333 32.392,321.258 32.167,321.167 32.167 C 321.075 32.167,321.000 31.942,321.000 31.667 C 321.000 31.392,320.925 31.167,320.833 31.167 C 320.742 31.167,320.667 30.942,320.667 30.667 C 320.667 30.392,320.592 30.167,320.500 30.167 C 320.408 30.167,320.333 29.942,320.333 29.667 C 320.333 29.392,320.258 29.167,320.167 29.167 C 320.075 29.167,320.000 28.946,320.000 28.677 C 320.000 28.407,319.925 28.140,319.833 28.083 C 319.742 28.027,319.667 27.802,319.667 27.583 C 319.667 27.365,319.592 27.140,319.500 27.083 C 319.408 27.027,319.333 26.760,319.333 26.490 C 319.333 26.221,319.258 26.000,319.167 26.000 C 319.075 26.000,319.000 25.775,319.000 25.500 C 319.000 25.225,318.925 25.000,318.833 25.000 C 318.742 25.000,318.667 24.775,318.667 24.500 C 318.667 24.225,318.592 24.000,318.500 24.000 C 318.408 24.000,318.333 23.779,318.333 23.510 C 318.333 23.240,318.258 22.973,318.167 22.917 C 318.075 22.860,318.000 22.667,318.000 22.488 C 318.000 22.309,317.933 22.032,317.850 21.873 C 317.768 21.714,317.535 21.021,317.333 20.333 C 317.131 19.646,316.898 18.953,316.816 18.794 C 316.734 18.635,316.667 18.358,316.667 18.179 C 316.667 18.000,316.592 17.807,316.500 17.750 C 316.408 17.693,316.333 17.468,316.333 17.250 C 316.333 17.032,316.258 16.807,316.167 16.750 C 316.075 16.693,316.000 16.468,316.000 16.250 C 316.000 16.032,315.925 15.807,315.833 15.750 C 315.742 15.693,315.667 15.462,315.667 15.235 C 315.667 15.008,315.554 14.780,315.417 14.727 C 315.274 14.672,315.167 14.424,315.167 14.149 C 315.167 13.884,315.092 13.667,315.000 13.667 C 314.908 13.667,314.833 13.442,314.833 13.167 C 314.833 12.892,314.758 12.667,314.667 12.667 C 314.575 12.667,314.500 12.446,314.500 12.177 C 314.500 11.907,314.425 11.640,314.333 11.583 C 314.242 11.527,314.167 11.222,314.167 10.907 C 314.167 10.591,314.092 10.333,314.000 10.333 C 313.908 10.333,313.833 10.108,313.833 9.833 C 313.833 9.558,313.758 9.333,313.667 9.333 C 313.575 9.333,313.500 9.108,313.500 8.833 C 313.500 8.558,313.425 8.333,313.333 8.333 C 313.242 8.333,313.167 8.113,313.167 7.843 C 313.167 7.574,313.092 7.307,313.000 7.250 C 312.908 7.193,312.833 6.926,312.833 6.657 C 312.833 6.387,312.758 6.167,312.667 6.167 C 312.575 6.167,312.500 5.974,312.500 5.738 C 312.500 4.808,312.758 4.833,303.345 4.833 C 294.778 4.833,294.667 4.838,294.667 5.167 M36.333 5.333 C 36.333 5.425,36.434 5.500,36.557 5.500 C 37.021 5.500,37.167 6.339,37.167 9.008 L 37.167 11.667 34.238 11.667 C 31.922 11.667,31.260 11.617,31.071 11.429 C 30.786 11.143,30.720 7.500,31.000 7.500 C 31.093 7.500,31.167 7.056,31.167 6.500 L 31.167 5.500 31.667 5.500 C 31.942 5.500,32.167 5.425,32.167 5.333 C 32.167 5.231,32.972 5.167,34.250 5.167 C 35.528 5.167,36.333 5.231,36.333 5.333 M43.000 5.333 C 43.000 5.434,43.722 5.500,44.833 5.500 L 46.667 5.500 46.667 8.583 L 46.667 11.667 43.738 11.667 C 40.049 11.667,40.333 11.924,40.333 8.583 C 40.333 5.963,40.432 5.500,40.988 5.500 C 41.086 5.500,41.167 5.425,41.167 5.333 C 41.167 5.242,41.579 5.167,42.083 5.167 C 42.587 5.167,43.000 5.242,43.000 5.333 M54.750 5.333 C 54.807 5.425,55.041 5.500,55.272 5.500 C 56.101 5.500,56.167 5.743,56.167 8.821 L 56.167 11.667 53.083 11.667 C 50.111 11.667,50.000 11.655,50.000 11.333 C 50.000 11.150,49.925 11.000,49.833 11.000 C 49.730 11.000,49.667 10.142,49.667 8.760 C 49.667 7.446,49.736 6.477,49.833 6.417 C 49.925 6.360,50.000 6.131,50.000 5.907 C 50.000 5.537,50.067 5.500,50.740 5.500 C 51.147 5.500,51.527 5.425,51.583 5.333 C 51.640 5.242,52.352 5.167,53.167 5.167 C 53.981 5.167,54.693 5.242,54.750 5.333 M28.167 8.583 L 28.167 11.667 25.083 11.667 L 22.000 11.667 22.000 11.260 C 22.000 11.036,21.925 10.807,21.833 10.750 C 21.742 10.693,21.667 9.981,21.667 9.167 C 21.667 8.352,21.742 7.640,21.833 7.583 C 21.925 7.527,22.000 7.035,22.000 6.490 L 22.000 5.500 25.083 5.500 L 28.167 5.500 28.167 8.583 M259.750 15.500 C 259.807 15.592,260.036 15.667,260.260 15.667 C 260.484 15.667,260.667 15.742,260.667 15.833 C 260.667 15.925,260.781 16.000,260.921 16.000 C 261.252 16.000,262.667 17.415,262.667 17.746 C 262.667 17.886,262.742 18.000,262.833 18.000 C 262.925 18.000,263.000 18.150,263.000 18.333 C 263.000 18.517,263.075 18.667,263.167 18.667 C 263.267 18.667,263.333 19.333,263.333 20.333 C 263.333 21.333,263.267 22.000,263.167 22.000 C 263.075 22.000,263.000 22.225,263.000 22.500 C 263.000 22.775,262.925 23.000,262.833 23.000 C 262.742 23.000,262.667 23.115,262.667 23.256 C 262.667 23.587,261.587 24.667,261.256 24.667 C 261.115 24.667,261.000 24.742,261.000 24.833 C 261.000 24.925,260.850 25.000,260.667 25.000 C 260.483 25.000,260.333 25.068,260.333 25.151 C 260.333 25.321,259.166 25.473,256.875 25.603 L 255.333 25.690 255.333 20.511 L 255.333 15.333 257.490 15.333 C 258.748 15.333,259.690 15.403,259.750 15.500 M165.176 18.000 C 165.262 18.000,165.333 18.375,165.333 18.833 C 165.333 19.292,165.408 19.667,165.500 19.667 C 165.592 19.667,165.667 19.967,165.667 20.333 C 165.667 20.700,165.742 21.000,165.833 21.000 C 165.925 21.000,166.000 21.300,166.000 21.667 C 166.000 22.033,166.075 22.333,166.167 22.333 C 166.258 22.333,166.333 22.633,166.333 23.000 C 166.333 23.367,166.408 23.667,166.500 23.667 C 166.592 23.667,166.667 23.967,166.667 24.333 C 166.667 24.700,166.742 25.000,166.833 25.000 C 166.925 25.000,167.000 25.300,167.000 25.667 C 167.000 26.033,167.075 26.333,167.167 26.333 C 167.258 26.333,167.333 26.633,167.333 27.000 C 167.333 27.367,167.408 27.667,167.500 27.667 C 167.592 27.667,167.667 27.925,167.667 28.240 C 167.667 28.556,167.742 28.860,167.833 28.917 C 167.925 28.973,168.000 29.236,168.000 29.500 C 168.000 29.764,168.075 30.027,168.167 30.083 C 168.258 30.140,168.333 30.440,168.333 30.750 C 168.333 31.060,168.408 31.360,168.500 31.417 C 169.048 31.755,168.347 31.833,164.750 31.833 C 161.380 31.833,160.833 31.798,160.833 31.583 C 160.833 31.446,160.908 31.333,161.000 31.333 C 161.092 31.333,161.167 31.040,161.167 30.681 C 161.167 30.322,161.249 30.000,161.349 29.967 C 161.449 29.934,161.596 29.609,161.675 29.245 C 161.754 28.881,161.902 28.246,162.004 27.833 C 162.107 27.421,162.231 26.839,162.280 26.540 C 162.330 26.241,162.437 25.956,162.518 25.905 C 162.600 25.855,162.667 25.560,162.667 25.250 C 162.667 24.940,162.742 24.640,162.833 24.583 C 162.925 24.527,163.000 24.222,163.000 23.907 C 163.000 23.591,163.075 23.333,163.167 23.333 C 163.258 23.333,163.333 23.075,163.333 22.760 C 163.333 22.444,163.408 22.140,163.500 22.083 C 163.592 22.027,163.667 21.727,163.667 21.417 C 163.667 21.107,163.742 20.807,163.833 20.750 C 163.925 20.693,164.000 20.393,164.000 20.083 C 164.000 19.773,164.075 19.473,164.167 19.417 C 164.258 19.360,164.333 19.060,164.333 18.750 C 164.333 18.440,164.408 18.140,164.500 18.083 C 164.592 18.027,164.667 17.697,164.667 17.351 C 164.667 16.431,164.908 16.338,164.967 17.235 C 164.995 17.656,165.089 18.000,165.176 18.000 M303.344 17.667 C 303.430 17.667,303.500 18.042,303.500 18.500 C 303.500 18.958,303.575 19.333,303.667 19.333 C 303.758 19.333,303.833 19.633,303.833 20.000 C 303.833 20.367,303.908 20.667,304.000 20.667 C 304.092 20.667,304.167 20.967,304.167 21.333 C 304.167 21.700,304.242 22.000,304.333 22.000 C 304.425 22.000,304.500 22.300,304.500 22.667 C 304.500 23.033,304.575 23.333,304.667 23.333 C 304.758 23.333,304.833 23.633,304.833 24.000 C 304.833 24.367,304.908 24.667,305.000 24.667 C 305.092 24.667,305.167 24.967,305.167 25.333 C 305.167 25.700,305.242 26.000,305.333 26.000 C 305.425 26.000,305.500 26.300,305.500 26.667 C 305.500 27.033,305.575 27.333,305.667 27.333 C 305.758 27.333,305.833 27.633,305.833 28.000 C 305.833 28.367,305.908 28.667,306.000 28.667 C 306.092 28.667,306.167 28.925,306.167 29.240 C 306.167 29.556,306.242 29.860,306.333 29.917 C 306.425 29.973,306.500 30.278,306.500 30.593 C 306.500 30.909,306.575 31.167,306.667 31.167 C 306.758 31.167,306.833 31.317,306.833 31.500 C 306.833 31.824,306.722 31.833,302.917 31.833 C 300.417 31.833,299.000 31.773,299.000 31.667 C 299.000 31.575,299.075 31.500,299.167 31.500 C 299.258 31.500,299.333 31.242,299.333 30.927 C 299.333 30.611,299.408 30.307,299.500 30.250 C 299.592 30.193,299.667 29.895,299.667 29.587 C 299.667 29.280,299.749 29.000,299.849 28.967 C 299.949 28.934,300.096 28.609,300.175 28.245 C 300.254 27.881,300.402 27.246,300.504 26.833 C 300.607 26.421,300.731 25.839,300.780 25.540 C 300.830 25.241,300.937 24.956,301.018 24.905 C 301.100 24.855,301.167 24.556,301.167 24.240 C 301.167 23.925,301.242 23.667,301.333 23.667 C 301.425 23.667,301.500 23.367,301.500 23.000 C 301.500 22.633,301.575 22.333,301.667 22.333 C 301.758 22.333,301.833 22.033,301.833 21.667 C 301.833 21.300,301.908 21.000,302.000 21.000 C 302.092 21.000,302.167 20.700,302.167 20.333 C 302.167 19.967,302.242 19.667,302.333 19.667 C 302.425 19.667,302.500 19.367,302.500 19.000 C 302.500 18.633,302.575 18.333,302.667 18.333 C 302.758 18.333,302.833 18.046,302.833 17.694 C 302.833 16.947,303.059 16.603,303.136 17.234 C 303.165 17.472,303.259 17.667,303.344 17.667 M19.000 21.167 C 19.000 21.258,18.775 21.333,18.500 21.333 C 18.225 21.333,18.000 21.408,18.000 21.500 C 18.000 21.592,17.878 21.667,17.728 21.667 C 17.578 21.667,17.333 21.798,17.184 21.958 C 17.034 22.119,16.768 22.330,16.592 22.428 C 16.416 22.526,16.192 22.750,16.094 22.925 C 15.997 23.101,15.785 23.368,15.625 23.517 C 15.465 23.667,15.333 23.912,15.333 24.061 C 15.333 24.211,15.258 24.333,15.167 24.333 C 15.075 24.333,15.000 24.740,15.000 25.236 C 15.000 25.807,14.923 26.167,14.792 26.214 C 14.625 26.275,14.625 26.360,14.792 26.643 C 14.906 26.837,15.000 27.296,15.000 27.664 C 15.000 28.032,15.075 28.333,15.167 28.333 C 15.258 28.333,15.333 28.483,15.333 28.667 C 15.333 28.850,15.408 29.000,15.500 29.000 C 15.592 29.000,15.667 29.133,15.667 29.297 C 15.667 29.460,15.817 29.701,16.000 29.833 C 16.183 29.965,16.333 30.170,16.333 30.287 C 16.333 30.404,16.408 30.500,16.500 30.500 C 16.592 30.500,16.667 30.613,16.667 30.750 C 16.667 30.887,16.742 31.000,16.833 31.000 C 16.925 31.000,17.000 31.080,17.000 31.179 C 17.000 31.444,16.561 31.833,16.262 31.833 C 16.118 31.833,16.000 31.908,16.000 32.000 C 16.000 32.092,15.887 32.167,15.750 32.167 C 15.612 32.167,15.500 32.242,15.500 32.333 C 15.500 32.425,15.387 32.500,15.250 32.500 C 15.112 32.500,15.000 32.575,15.000 32.667 C 15.000 32.758,14.886 32.833,14.748 32.833 C 14.419 32.833,11.667 35.585,11.667 35.914 C 11.667 36.053,11.592 36.167,11.500 36.167 C 11.408 36.167,11.333 36.317,11.333 36.500 C 11.333 36.683,11.258 36.833,11.167 36.833 C 11.073 36.833,11.000 37.302,11.000 37.907 C 11.000 38.497,10.925 39.027,10.833 39.083 C 10.093 39.541,11.100 42.500,11.997 42.500 C 12.093 42.500,12.320 42.575,12.502 42.667 C 12.684 42.758,12.982 42.908,13.164 43.000 C 13.346 43.092,13.609 43.167,13.748 43.167 C 13.886 43.167,14.000 43.242,14.000 43.333 C 14.000 43.425,14.221 43.500,14.490 43.500 C 14.760 43.500,15.027 43.575,15.083 43.667 C 15.140 43.758,15.444 43.833,15.760 43.833 C 16.075 43.833,16.333 43.908,16.333 44.000 C 16.333 44.092,16.629 44.167,16.990 44.167 C 17.351 44.167,17.693 44.242,17.750 44.333 C 17.807 44.425,18.336 44.500,18.927 44.500 C 19.531 44.500,20.000 44.427,20.000 44.333 C 20.000 44.232,20.719 44.167,21.823 44.167 C 22.859 44.167,23.691 44.095,23.750 44.000 C 23.807 43.908,24.149 43.833,24.510 43.833 C 24.871 43.833,25.167 43.758,25.167 43.667 C 25.167 43.575,25.350 43.500,25.573 43.500 C 25.797 43.500,26.027 43.425,26.083 43.333 C 26.140 43.242,26.332 43.167,26.510 43.167 C 26.688 43.167,26.833 43.092,26.833 43.000 C 26.833 42.908,26.983 42.833,27.167 42.833 C 27.350 42.833,27.500 42.758,27.500 42.667 C 27.500 42.575,27.615 42.500,27.756 42.500 C 28.087 42.500,29.167 41.421,29.167 41.089 C 29.167 40.948,29.242 40.833,29.333 40.833 C 29.426 40.833,29.500 40.389,29.500 39.833 C 29.500 39.278,29.426 38.833,29.333 38.833 C 29.242 38.833,29.166 38.590,29.164 38.292 C 29.162 37.751,28.831 36.609,28.614 36.392 C 28.551 36.329,28.500 36.103,28.500 35.889 C 28.500 35.675,28.438 35.500,28.361 35.500 C 28.285 35.500,28.117 35.294,27.987 35.042 C 27.730 34.541,26.692 33.500,26.451 33.500 C 26.368 33.500,26.090 33.275,25.833 33.000 C 25.576 32.725,25.294 32.500,25.206 32.500 C 25.118 32.500,24.698 32.176,24.273 31.780 L 23.500 31.060 23.995 30.405 C 24.268 30.045,24.493 29.656,24.495 29.542 C 24.498 29.427,24.575 29.333,24.667 29.333 C 24.758 29.333,24.833 29.183,24.833 29.000 C 24.833 28.817,24.908 28.667,25.000 28.667 C 25.244 28.667,25.203 25.530,24.950 24.833 C 24.425 23.389,22.956 21.667,22.248 21.667 C 22.112 21.667,22.000 21.592,22.000 21.500 C 22.000 21.408,21.779 21.333,21.510 21.333 C 21.240 21.333,20.973 21.258,20.917 21.167 C 20.860 21.075,20.406 21.000,19.907 21.000 C 19.408 21.000,19.000 21.075,19.000 21.167 " stroke="none" fill="#fcfcfc" fill-rule="evenodd"></path><path id="path1" d="M54.167 25.167 C 54.167 25.258,54.017 25.333,53.833 25.333 C 53.650 25.333,53.500 25.408,53.500 25.500 C 53.500 25.592,53.354 25.667,53.177 25.667 C 52.999 25.667,52.807 25.742,52.750 25.833 C 52.693 25.925,52.501 26.000,52.323 26.000 C 52.146 26.000,52.000 26.075,52.000 26.167 C 52.000 26.258,51.886 26.333,51.748 26.333 C 51.609 26.333,51.328 26.420,51.123 26.526 C 50.341 26.930,50.164 27.000,49.919 27.000 C 49.780 27.000,49.667 27.075,49.667 27.167 C 49.667 27.258,49.494 27.333,49.283 27.333 C 49.073 27.333,48.829 27.393,48.742 27.466 C 48.655 27.539,48.283 27.694,47.917 27.810 C 47.550 27.927,47.100 28.083,46.917 28.158 C 46.733 28.233,46.021 28.458,45.333 28.659 C 44.646 28.860,43.853 29.094,43.572 29.179 C 43.290 29.264,42.913 29.333,42.734 29.333 C 42.259 29.333,41.667 29.801,41.667 30.176 C 41.667 30.354,41.592 30.500,41.500 30.500 C 41.401 30.500,41.333 31.111,41.333 32.000 C 41.333 32.889,41.265 33.500,41.167 33.500 C 41.066 33.500,41.000 34.191,41.000 35.240 C 41.000 36.220,41.073 37.025,41.167 37.083 C 41.260 37.141,41.333 37.918,41.333 38.843 C 41.333 39.837,41.400 40.500,41.500 40.500 C 41.592 40.500,41.667 40.875,41.667 41.333 C 41.667 41.792,41.742 42.167,41.833 42.167 C 41.925 42.167,42.000 42.467,42.000 42.833 C 42.000 43.200,42.075 43.500,42.167 43.500 C 42.258 43.500,42.333 43.725,42.333 44.000 C 42.333 44.275,42.408 44.500,42.500 44.500 C 42.592 44.500,42.667 44.725,42.667 45.000 C 42.667 45.275,42.742 45.500,42.833 45.500 C 42.925 45.500,43.000 45.725,43.000 46.000 C 43.000 46.275,43.075 46.500,43.167 46.500 C 43.258 46.500,43.333 46.650,43.333 46.833 C 43.333 47.017,43.408 47.167,43.500 47.167 C 43.592 47.167,43.667 47.317,43.667 47.500 C 43.667 47.683,43.742 47.833,43.833 47.833 C 43.925 47.833,44.000 47.983,44.000 48.167 C 44.000 48.350,44.075 48.500,44.167 48.500 C 44.258 48.500,44.333 48.650,44.333 48.833 C 44.333 49.017,44.408 49.167,44.500 49.167 C 44.592 49.167,44.667 49.317,44.667 49.500 C 44.667 49.683,44.742 49.833,44.833 49.833 C 44.925 49.833,45.000 49.969,45.000 50.135 C 45.000 50.301,45.135 50.583,45.301 50.760 C 45.466 50.938,45.710 51.327,45.842 51.625 C 45.973 51.923,46.138 52.167,46.207 52.167 C 46.277 52.167,46.333 52.263,46.333 52.380 C 46.333 52.497,46.483 52.701,46.667 52.833 C 46.850 52.965,47.000 53.158,47.000 53.262 C 47.000 53.366,47.207 53.668,47.460 53.934 C 47.713 54.199,48.106 54.679,48.334 55.000 C 49.045 56.004,51.165 58.044,52.663 59.167 C 52.969 59.396,53.305 59.667,53.410 59.770 C 54.141 60.489,56.509 60.800,57.060 60.250 C 57.197 60.112,57.388 60.000,57.485 60.000 C 57.717 60.000,63.833 53.879,63.833 53.647 C 63.833 53.548,64.058 53.257,64.333 53.000 C 64.608 52.743,64.833 52.451,64.833 52.350 C 64.833 52.249,64.908 52.167,65.000 52.167 C 65.092 52.167,65.167 52.054,65.167 51.917 C 65.167 51.779,65.242 51.667,65.333 51.667 C 65.425 51.667,65.500 51.554,65.500 51.417 C 65.500 51.279,65.556 51.166,65.625 51.165 C 65.775 51.164,66.167 50.357,66.167 50.050 C 66.167 49.931,66.242 49.833,66.333 49.833 C 66.425 49.833,66.500 49.683,66.500 49.500 C 66.500 49.317,66.575 49.167,66.667 49.167 C 66.758 49.167,66.833 49.017,66.833 48.833 C 66.833 48.650,66.908 48.500,67.000 48.500 C 67.092 48.500,67.167 48.350,67.167 48.167 C 67.167 47.983,67.242 47.833,67.333 47.833 C 67.425 47.833,67.500 47.608,67.500 47.333 C 67.500 47.058,67.575 46.833,67.667 46.833 C 67.758 46.833,67.833 46.608,67.833 46.333 C 67.833 46.058,67.908 45.833,68.000 45.833 C 68.092 45.833,68.167 45.688,68.167 45.510 C 68.167 45.332,68.242 45.140,68.333 45.083 C 68.425 45.027,68.500 44.722,68.500 44.407 C 68.500 44.091,68.575 43.833,68.667 43.833 C 68.758 43.833,68.833 43.580,68.833 43.270 C 68.833 42.961,68.938 42.620,69.066 42.514 C 69.195 42.408,69.345 42.005,69.400 41.619 C 70.089 36.813,70.064 30.730,69.352 29.991 C 68.983 29.607,68.423 29.333,68.009 29.333 C 67.818 29.333,67.532 29.268,67.373 29.187 C 66.886 28.941,65.913 28.667,65.530 28.667 C 65.330 28.667,65.167 28.592,65.167 28.500 C 65.167 28.408,64.946 28.333,64.677 28.333 C 64.407 28.333,64.140 28.258,64.083 28.167 C 64.027 28.075,63.797 28.000,63.573 28.000 C 63.350 28.000,63.167 27.925,63.167 27.833 C 63.167 27.742,62.942 27.667,62.667 27.667 C 62.392 27.667,62.167 27.592,62.167 27.500 C 62.167 27.408,62.053 27.333,61.914 27.333 C 61.776 27.333,61.513 27.258,61.331 27.167 C 61.149 27.075,60.851 26.925,60.669 26.833 C 60.487 26.742,60.224 26.667,60.086 26.667 C 59.947 26.667,59.833 26.592,59.833 26.500 C 59.833 26.408,59.683 26.333,59.500 26.333 C 59.317 26.333,59.167 26.258,59.167 26.167 C 59.167 26.075,59.061 26.000,58.932 26.000 C 58.730 26.000,58.200 25.770,56.961 25.146 C 56.557 24.942,54.167 24.960,54.167 25.167 M64.150 35.964 C 65.785 37.535,65.779 37.412,64.295 38.978 C 61.450 41.981,54.055 49.149,53.579 49.365 C 53.125 49.572,51.126 47.763,47.458 43.826 C 46.081 42.347,46.055 42.607,47.744 40.918 L 49.155 39.506 50.286 40.575 C 52.981 43.123,53.667 43.615,53.667 43.000 C 53.667 42.908,53.743 42.833,53.837 42.833 C 53.931 42.833,54.405 42.440,54.892 41.958 C 55.379 41.477,56.550 40.371,57.495 39.500 C 58.440 38.629,59.955 37.185,60.862 36.292 C 62.835 34.348,62.502 34.382,64.150 35.964 " stroke="none" fill="#04acd4" fill-rule="evenodd"></path><path id="path2" d="" stroke="none" fill="#100d4e8" fill-rule="evenodd"></path><path id="path3" d="" stroke="none" fill="#100d4e8" fill-rule="evenodd"></path><path id="path4" d="" stroke="none" fill="#100d4e8" fill-rule="evenodd"></path></g></svg>